HIERARCHY
ROOT Hips
{
	OFFSET	0.00	0.00	0.00
	CHANNELS 6 Xposition Yposition Zposition Zrotation Xrotation Yrotation
	JOINT LeftUpLeg
	{
		OFFSET	 0.126116	-0.014019	-0.065224
		CHANNELS 3 Zrotation Xrotation Yrotation
		JOINT LeftLeg
		{
			OFFSET	 0.000000	 0.000000	 0.569914
			CHANNELS 3 Zrotation Xrotation Yrotation
			JOINT LeftFoot
			{
				OFFSET	 0.000000	 0.000000	 0.544423
				CHANNELS 3 Zrotation Xrotation Yrotation
				JOINT LeftToeBase
				{
					OFFSET	 0.000000	 0.000000	 0.207117
					CHANNELS 3 Zrotation Xrotation Yrotation
					End Site
					{
						OFFSET	 0.000000	 0.000000	 0.207117
					}
				}
			}
		}
	}
	JOINT RightUpLeg
	{
		OFFSET	-0.124023	-0.008373	-0.065224
		CHANNELS 3 Zrotation Xrotation Yrotation
		JOINT RightLeg
		{
			OFFSET	 0.000000	 0.000000	 0.570047
			CHANNELS 3 Zrotation Xrotation Yrotation
			JOINT RightFoot
			{
				OFFSET	 0.000000	 0.000000	 0.544354
				CHANNELS 3 Zrotation Xrotation Yrotation
				JOINT RightToeBase
				{
					OFFSET	 0.000000	 0.000000	 0.207540
					CHANNELS 3 Zrotation Xrotation Yrotation
					End Site
					{
						OFFSET	 0.000000	 0.000000	 0.207540
					}
				}
			}
		}
	}
	JOINT Spine
	{
		OFFSET	 0.000184	-0.007763	 0.117403
		CHANNELS 3 Zrotation Xrotation Yrotation
		JOINT Spine1
		{
			OFFSET	 0.000000	 0.000000	 0.137269
			CHANNELS 3 Zrotation Xrotation Yrotation
			JOINT Spine2
			{
				OFFSET	 0.000000	 0.000000	 0.156879
				CHANNELS 3 Zrotation Xrotation Yrotation
				JOINT LeftShoulder
				{
					OFFSET	 0.080501	-0.002496	 0.160144
					CHANNELS 3 Zrotation Xrotation Yrotation
					JOINT LeftArm
					{
						OFFSET	 0.000000	 0.000000	 0.164363
						CHANNELS 3 Zrotation Xrotation Yrotation
						JOINT LeftForeArm
						{
							OFFSET	 0.000000	 0.000000	 0.364576
							CHANNELS 3 Zrotation Xrotation Yrotation
							JOINT LeftHand
							{
								OFFSET	 0.000000	 0.000000	 0.360812
								CHANNELS 3 Zrotation Xrotation Yrotation
								JOINT LeftHandIndex1
								{
									OFFSET	 0.000000	 0.000000	 0.086006
									CHANNELS 3 Zrotation Xrotation Yrotation
									JOINT LeftHandIndex2
									{
										OFFSET	 0.000000	 0.000000	 0.047236
										CHANNELS 3 Zrotation Xrotation Yrotation
										JOINT LeftHandIndex3
										{
											OFFSET	-0.004284	-0.000551	 0.038166
											CHANNELS 3 Zrotation Xrotation Yrotation
											End Site
											{
												OFFSET	-0.004284	-0.000551	 0.038166
											}
										}
									}
								}
							}
						}
					}
				}
				JOINT Neck
				{
					OFFSET	 0.000000	 0.000000	 0.176489
					CHANNELS 3 Zrotation Xrotation Yrotation
					JOINT Head
					{
						OFFSET	 0.000000	-0.001747	 0.077940
						CHANNELS 3 Zrotation Xrotation Yrotation
						End Site
						{
							OFFSET	 0.000000	-0.001747	 0.077940
						}
					}
				}
				JOINT RightShoulder
				{
					OFFSET	-0.080363	 0.000306	 0.159706
					CHANNELS 3 Zrotation Xrotation Yrotation
					JOINT RightArm
					{
						OFFSET	 0.000000	 0.000000	 0.164196
						CHANNELS 3 Zrotation Xrotation Yrotation
						JOINT RightForeArm
						{
							OFFSET	 0.000000	 0.000000	 0.365611
							CHANNELS 3 Zrotation Xrotation Yrotation
							JOINT RightHand
							{
								OFFSET	 0.000000	 0.000000	 0.360648
								CHANNELS 3 Zrotation Xrotation Yrotation
								JOINT RightHandIndex1
								{
									OFFSET	 0.000000	 0.000000	 0.069977
									CHANNELS 3 Zrotation Xrotation Yrotation
									JOINT RightHandIndex2
									{
										OFFSET	 0.000000	 0.000000	 0.052305
										CHANNELS 3 Zrotation Xrotation Yrotation
										JOINT RightHandIndex3
										{
											OFFSET	 0.009002	-0.000782	 0.042196
											CHANNELS 3 Zrotation Xrotation Yrotation
											End Site
											{
												OFFSET	 0.009002	-0.000782	 0.042196
											}
										}
									}
								}
							}
						}
					}
				}
			}
		}
	}
}
MOTION
Frames:    7
Frame Time: 0.03333334
 6.481055	 3.624856	 0.689825	 171.107800	-2.130876	-1.222536	 7.327140	 20.898080	-176.886800	-3.541789	-11.630160	 1.491182	 3.749671	 84.415340	-0.328625	-2.295925	 40.187710	-0.280673	 5.175468	-35.837400	-177.674900	 0.591533	-41.726300	 4.654186	 127.557000	 89.754510	-121.953100	 2.368868	 31.444800	 0.067570	-2.464274	 3.516162	 2.315778	-3.557891	-1.304229	 0.636992	-4.064201	-3.678955	-0.920544	-91.776180	 78.527400	-180.000000	 35.808870	 60.513160	-54.025890	-9.016349	-4.960164	-36.213790	 3.023146	-10.162370	-5.446534	-3.812334	 37.924440	-2.927599	-2.450526	 36.184240	 0.754587	-1.378229	 35.397820	-2.634230	 1.224608	 2.177164	-4.962831	 0.296526	-9.249489	 3.434058	 89.782120	 78.203930	 180.000000	-37.587840	 72.266670	 34.995090	 0.196578	-6.795045	 21.850340	-12.278660	-11.220620	 9.731278	 6.437017	 35.671460	-0.771858	 2.830251	 35.756010	-7.813440	-2.350882	 35.473990	 5.254307
 6.490978	 3.675968	 0.688004	 171.587000	-1.906448	-1.316849	 7.523479	 23.064850	-177.344800	-3.294249	-11.620330	 1.566446	 4.457741	 84.239650	-0.672412	-2.257311	 43.213830	-0.365418	 5.158192	-36.067840	-177.427200	-0.222856	-38.227880	 3.697530	 152.790000	 89.386110	-147.599400	 2.360912	 32.709610	 0.096494	-1.988522	 3.352687	 2.075386	-2.623339	-1.464312	 0.571207	-2.848442	-3.864775	-0.859711	-91.776180	 78.527420	-180.000000	 36.656790	 60.704100	-54.970820	-9.094734	-4.987025	-36.739280	 2.719308	-12.877480	-5.500399	-3.812334	 37.924440	-2.927599	-2.450526	 36.184240	 0.754587	-1.378229	 35.397820	-2.634230	 1.234005	 2.106549	-5.011276	 0.636294	-9.303214	 4.011566	 89.782090	 78.203830	-180.000000	-36.365050	 72.923180	 33.612490	 0.325495	-6.695658	 20.817450	-12.270370	-13.928130	 9.823832	 6.437017	 35.671460	-0.771858	 2.830251	 35.756010	-7.813440	-2.350882	 35.473990	 5.254307
 6.504373	 3.738815	 0.685866	 172.161700	-2.013003	-1.323926	 7.928088	 25.714430	-178.441500	-2.552318	-11.598530	 1.721687	 5.400270	 82.756060	-0.781030	-2.208486	 46.336980	-0.460755	 4.876131	-35.560790	-177.526200	 0.494372	-38.052590	 3.997659	 138.183800	 89.605840	-132.580300	 2.366531	 31.830980	 0.076341	-1.456383	 3.260725	 1.880359	-1.548637	-1.543363	 0.421376	-1.388198	-3.867076	-0.805311	-91.776180	 78.527400	-180.000000	 38.109330	 61.405160	-55.845460	-9.139441	-4.962672	-36.313300	 2.414353	-16.186540	-5.583059	-3.812334	 37.924440	-2.927599	-2.450526	 36.184240	 0.754587	-1.378229	 35.397820	-2.634230	 1.312183	 2.127643	-5.060556	 1.065349	-9.331204	 4.563511	 89.782120	 78.203870	 180.000000	-35.340490	 73.464250	 32.485810	 0.248838	-6.562096	 19.621220	-12.230700	-17.220640	 9.968153	 6.437017	 35.671460	-0.771858	 2.830251	 35.756010	-7.813440	-2.350882	 35.473990	 5.254307
 6.518795	 3.801188	 0.683823	 172.727800	-2.148316	-1.270612	 8.449413	 28.193600	-179.901500	-1.689103	-11.575100	 1.874730	 5.890259	 79.764400	-0.333313	-2.153628	 49.222640	-0.557704	 4.716657	-34.182730	-177.863600	 1.714054	-39.903370	 4.973217	 23.915110	 89.505440	-17.549070	 2.378365	 29.716520	 0.028989	-1.012591	 3.089184	 1.818282	-0.575806	-1.563677	 0.235984	 0.031834	-3.654026	-0.804338	-91.776180	 78.527400	-180.000000	 39.744870	 62.405280	-56.127430	-9.094543	-4.858076	-35.091890	 2.101251	-19.376130	-5.688038	-3.812334	 37.924440	-2.927599	-2.450526	 36.184240	 0.754587	-1.378229	 35.397820	-2.634230	 1.455724	 2.459409	-5.131027	 1.498745	-9.463858	 5.001090	 89.782120	 78.203930	 180.000000	-34.280720	 73.833370	 31.242280	 0.121263	-6.435477	 18.647340	-12.088200	-20.413530	 10.146610	 6.437017	 35.671460	-0.771858	 2.830251	 35.756010	-7.813440	-2.350882	 35.473990	 5.254307
 6.533375	 3.861689	 0.682792	 173.451400	-2.252500	-1.142879	 9.018154	 30.401440	 178.418300	-0.969114	-11.559720	 1.968807	 5.662375	 75.067900	 0.711000	-2.109386	 51.207940	-0.630437	 3.976006	-32.678060	-178.592400	 3.583660	-42.219990	 6.178673	 4.597804	 88.161650	 2.532337	 2.383286	 28.693240	 0.006600	-0.696940	 2.842190	 1.613296	 0.263993	-1.601560	 0.081572	 1.366479	-3.441744	-0.857104	-91.776180	 78.527400	-180.000000	 41.380810	 63.633000	-55.911130	-8.840971	-4.805772	-33.164230	 2.015019	-22.472750	-5.804209	-3.812334	 37.924440	-2.927599	-2.450526	 36.184240	 0.754587	-1.378229	 35.397820	-2.634230	 1.582561	 2.844410	-5.097598	 1.882214	-9.479992	 5.208426	 89.782120	 78.203930	 180.000000	-32.801000	 74.083200	 29.345610	 0.100569	-6.320137	 17.989360	-11.739560	-23.473350	 10.360800	 6.437017	 35.671460	-0.771858	 2.830251	 35.756010	-7.813440	-2.350882	 35.473990	 5.254307
 6.548109	 3.924334	 0.683888	 174.400700	-2.490291	-1.029858	 9.652669	 32.474010	 176.830400	-1.358457	-11.123330	 1.823056	 4.982771	 67.553820	 1.385464	-2.113978	 51.013610	-0.623072	 2.819607	-31.001220	-179.148600	 4.695658	-44.669380	 6.664299	 3.552256	 85.611080	 3.344300	 2.391133	 26.790860	-0.034211	-0.347756	 2.621181	 1.308948	 1.120491	-1.546261	-0.026268	 2.594679	-3.288601	-0.873886	-91.776180	 78.527400	-180.000000	 43.188190	 65.137640	-55.837730	-8.428391	-4.819560	-30.318670	 2.257627	-25.677350	-5.951475	-3.812334	 37.924440	-2.927599	-2.450526	 36.184240	 0.754587	-1.378229	 35.397820	-2.634230	 1.666949	 3.055976	-4.973313	 2.237634	-9.298419	 5.223084	 89.782100	 78.203850	-180.000000	-31.986280	 74.184610	 28.317930	 0.187857	-6.198400	 17.586050	-11.099140	-26.653590	 10.630160	 6.437017	 35.671460	-0.771858	 2.830251	 35.756010	-7.813440	-2.350882	 35.473990	 5.254307
 6.565629	 3.978817	 0.689868	 175.318100	-2.689078	-1.460369	 7.331044	 23.255150	 176.429900	-1.044855	-31.152350	 1.653212	 2.988539	 64.633420	 0.330629	-2.177930	 48.010570	-0.515823	 1.849535	-29.635430	-179.197200	 5.349522	-47.205450	 6.916525	 3.458458	 84.009850	 2.962683	 2.400015	 23.889730	-0.094675	 0.253320	 2.220617	 1.803436	 2.051477	-1.434465	 0.014117	 3.674463	-2.916981	-0.825581	-91.776180	 78.527420	-180.000000	 44.423870	 66.823510	-55.577380	-8.145838	-4.778379	-26.633560	 2.716936	-28.987970	-6.129211	-3.812334	 37.924440	-2.927599	-2.450526	 36.184240	 0.754587	-1.378229	 35.397820	-2.634230	 1.682159	 3.003978	-4.807235	 2.545497	-8.934063	 5.039573	 89.782100	 78.203850	-180.000000	-32.451020	 73.977750	 29.133690	 0.066793	-6.078324	 17.199560	-10.391560	-29.924630	 10.959650	 6.437017	 35.671460	-0.771858	 2.830251	 35.756010	-7.813440	-2.350882	 35.473990	 5.254307
